<svg width="19" height="19" viewBox="0 0 19 19" fill="none" xmlns="http://www.w3.org/2000/svg">
<circle cx="9.5" cy="9.5" r="9.5" fill="#FE9A22"/>
<path d="M12.1824 11.334C11.654 11.334 11.1788 11.5618 10.8464 11.925L7.55849 10.034C7.60963 9.86423 7.63733 9.68588 7.63733 9.50107C7.63733 9.31627 7.60963 9.13577 7.55849 8.96601L10.8464 7.07501C11.1788 7.43817 11.654 7.66595 12.1824 7.66595C13.186 7.66595 14 6.84294 14 5.83298C14 4.82301 13.186 4 12.1824 4C11.1788 4 10.3648 4.82301 10.3648 5.83298C10.3648 5.9834 10.384 6.12737 10.4159 6.26704L7.08332 8.18383C6.75517 7.86365 6.30982 7.66595 5.81973 7.66595C4.81611 7.6681 4 8.48896 4 9.50107C4 10.5132 4.81611 11.334 5.8176 11.334C6.30769 11.334 6.75517 11.1364 7.08119 10.8162L10.4138 12.733C10.3797 12.8726 10.3627 13.0188 10.3627 13.167C10.3627 14.1791 11.1788 15 12.1803 15C13.1818 15 13.9979 14.177 13.9979 13.167C14 12.1571 13.186 11.334 12.1824 11.334Z" fill="white"/>
</svg>
