<svg width="17" height="17" viewBox="0 0 17 17" fill="none" xmlns="http://www.w3.org/2000/svg">
<path d="M8.5 0C3.808 0 0 3.808 0 8.5C0 13.192 3.808 17 8.5 17C13.192 17 17 13.192 17 8.5C17 3.808 13.192 0 8.5 0ZM13.4232 9.0848C13.328 9.18 13.2056 9.2208 13.0832 9.2208C12.9608 9.2208 12.8384 9.1664 12.7432 9.0712L11.1928 7.5208C11.0024 7.3304 11.0024 7.0312 11.1928 6.8408C11.288 6.7456 11.3968 6.7048 11.5328 6.7048C11.6552 6.7048 11.7776 6.7592 11.8728 6.8544L12.5936 7.5752V7.48C12.5936 7.0312 12.4712 6.596 12.24 6.256C11.9544 5.8344 11.1384 5.1136 10.0368 5.3992C9.4656 5.5488 9.0576 5.9432 8.772 6.2288C8.568 6.4328 8.3912 6.596 8.2552 6.596C8.1192 6.596 7.956 6.4328 7.7384 6.2288C7.4392 5.9432 7.0448 5.5488 6.4736 5.3992C5.372 5.1136 4.556 5.8344 4.2704 6.256C3.8216 6.936 3.672 8.1056 4.6376 9.2888C5.5488 10.404 7.7384 12.2264 8.2008 12.6208V12.648H8.228L8.2416 12.6616L8.2688 12.6344C8.7856 12.2128 10.5672 10.7304 11.56 9.6288C11.6144 9.5744 11.7096 9.5608 11.7776 9.6288L12.308 10.1592C12.3352 10.1864 12.3488 10.2272 12.3488 10.268C12.3488 10.3088 12.3352 10.336 12.308 10.3632C11.016 11.764 8.6088 13.6952 8.5136 13.7768C8.4184 13.8584 8.3504 13.8856 8.2416 13.8856C8.1328 13.8856 8.0648 13.8584 7.9696 13.7768C7.8472 13.6816 4.964 11.3696 3.8216 9.9552C2.5024 8.3232 2.7608 6.6232 3.3864 5.6712C3.876 4.9368 4.8416 4.2704 5.9704 4.2704C6.2152 4.2704 6.46 4.2976 6.7184 4.3656C7.4664 4.556 7.9152 4.9912 8.2008 5.3584L8.228 5.3992L8.2552 5.3584C8.5544 5.0048 8.9896 4.556 9.7376 4.3656C11.1928 3.9848 12.4848 4.7736 13.0696 5.6712C13.396 6.1744 13.5864 6.7864 13.5864 7.4256V7.5208L14.2664 6.8408C14.3616 6.7456 14.484 6.7048 14.6064 6.7048C14.7288 6.7048 14.8512 6.7592 14.9464 6.8408C15.0416 6.936 15.0824 7.0584 15.0824 7.1808C15.0824 7.3032 15.028 7.4256 14.9464 7.5208L13.4232 9.0848Z" fill="white"/>
</svg>
