<svg width="19" height="19" viewBox="0 0 19 19" fill="none" xmlns="http://www.w3.org/2000/svg">
<path d="M9.5 0C4.256 0 0 4.1904 0 9.35358C0 14.5168 4.256 18.7072 9.5 18.7072C14.744 18.7072 19 14.5168 19 9.35358C19 4.1904 14.7516 0 9.5 0ZM4.3472 14.3596V7.38558H6.7032V14.3596H4.3472ZM5.5252 6.43526H5.51C4.7196 6.43526 4.2104 5.89649 4.2104 5.23052C4.2104 4.54958 4.7348 4.02578 5.5404 4.02578C6.346 4.02578 6.84 4.54958 6.8552 5.23052C6.8628 5.89649 6.346 6.43526 5.5252 6.43526ZM15.2 14.3596H12.844V10.6257C12.844 9.6903 12.502 9.04678 11.6508 9.04678C10.9972 9.04678 10.6096 9.48078 10.4424 9.89234C10.3816 10.042 10.3664 10.2515 10.3664 10.461V14.3596H8.0104C8.0104 14.3521 8.0408 8.03659 8.0104 7.38558H10.3664V8.37332C10.678 7.89442 11.2404 7.22096 12.4868 7.22096C14.0372 7.22096 15.2 8.21618 15.2 10.3638V14.3596Z" fill="#FE9A22"/>
</svg>
