<svg width="17" height="17" viewBox="0 0 17 17" fill="none" xmlns="http://www.w3.org/2000/svg">
<path d="M8.4561 0C3.78833 0 0 3.80192 0 8.48642C0 13.1709 3.78833 16.9728 8.4561 16.9728C13.1239 16.9728 16.9122 13.1709 16.9122 8.48642C16.9122 3.80192 13.1306 0 8.4561 0ZM3.86951 13.0284V6.70088H5.96662V13.0284H3.86951ZM4.91807 5.83866H4.90454C4.20099 5.83866 3.74774 5.34984 3.74774 4.74561C3.74774 4.1278 4.21452 3.65256 4.9316 3.65256C5.64867 3.65256 6.08839 4.1278 6.10192 4.74561C6.10868 5.34984 5.64867 5.83866 4.91807 5.83866ZM13.5298 13.0284H11.4326V9.64058C11.4326 8.79193 11.1282 8.20807 10.3706 8.20807C9.78878 8.20807 9.44377 8.60184 9.29494 8.97524C9.24082 9.11102 9.22729 9.30112 9.22729 9.49121V13.0284H7.13018C7.13018 13.0216 7.15724 7.29153 7.13018 6.70088H9.22729V7.59704C9.50465 7.16254 10.0053 6.55152 11.1147 6.55152C12.4947 6.55152 13.5298 7.45447 13.5298 9.40296V13.0284Z" fill="white"/>
</svg>
