<svg width="20" height="29" viewBox="0 0 20 29" fill="none" xmlns="http://www.w3.org/2000/svg">
<path d="M8.05031 10.6842V8.39474C8.05031 8.33114 8.11321 8.26754 8.1761 8.26754H14.3396V0.317982C14.3396 0.127193 14.2138 0 14.0252 0C6.22641 0.190789 0 6.61404 0 14.5C0 22.386 6.22641 28.8092 14.0252 29C14.2138 29 14.3396 28.8728 14.3396 28.682V20.9868H8.1761C8.11321 20.9868 8.05031 20.9232 8.05031 20.8596V18.5702C8.05031 18.5066 8.11321 18.443 8.1761 18.443H14.3396V15.8991H8.1761C8.11321 15.8991 8.05031 15.8355 8.05031 15.7719V13.4825C8.05031 13.4189 8.11321 13.3553 8.1761 13.3553H14.3396V10.8114H8.1761C8.11321 10.8114 8.05031 10.7478 8.05031 10.6842Z" fill="#302D2B"/>
<path d="M20.0002 10.6842V8.39477C20.0002 8.33117 19.9373 8.26758 19.8744 8.26758H14.3398V10.8114H19.8744C19.9373 10.8114 20.0002 10.7478 20.0002 10.6842Z" fill="#302D2B"/>
<path d="M20.0002 15.7719V13.4824C20.0002 13.4188 19.9373 13.3552 19.8744 13.3552H14.3398V15.8991H19.8744C19.9373 15.8991 20.0002 15.8355 20.0002 15.7719Z" fill="#302D2B"/>
<path d="M20.0002 20.8597V18.5702C20.0002 18.5066 19.9373 18.443 19.8744 18.443H14.3398V20.9869H19.8744C19.9373 20.9869 20.0002 20.9233 20.0002 20.8597Z" fill="#302D2B"/>
</svg>
