<svg width="17" height="17" viewBox="0 0 17 17" fill="none" xmlns="http://www.w3.org/2000/svg">
<path d="M8.4561 0.0270996C3.78833 0.0270996 0 3.82902 0 8.51352C0 13.198 3.78833 16.9999 8.4561 16.9999C13.1239 16.9999 16.9122 13.198 16.9122 8.51352C16.9122 3.82902 13.1239 0.0270996 8.4561 0.0270996ZM12.7044 6.9045C12.7112 6.99275 12.7112 7.08101 12.7112 7.16927C12.7112 9.87135 10.6615 12.9876 6.91371 12.9876C5.76368 12.9876 4.68806 12.6481 3.78833 12.071C3.95069 12.0914 4.11305 12.0982 4.27541 12.0982C5.22925 12.0982 6.10869 11.7723 6.80547 11.2224C5.91251 11.2088 5.16161 10.6114 4.89778 9.80346C5.01954 9.83062 5.14808 9.8374 5.28337 9.8374C5.46603 9.8374 5.64868 9.81025 5.8178 9.76272C4.88425 9.57263 4.1807 8.75114 4.1807 7.75993C4.1807 7.75314 4.1807 7.73956 4.1807 7.73277C4.45806 7.88892 4.76924 7.97718 5.10072 7.99076C4.55277 7.62415 4.19423 6.99954 4.19423 6.28668C4.19423 5.91328 4.2957 5.56025 4.47159 5.26153C5.47956 6.49715 6.98136 7.31184 8.67258 7.4001C8.63875 7.25074 8.61846 7.09459 8.61846 6.93165C8.61846 5.80466 9.53172 4.88812 10.6547 4.88812C11.2432 4.88812 11.7709 5.13932 12.143 5.53309C12.6097 5.43804 13.0427 5.26831 13.4351 5.03748C13.2795 5.51272 12.9615 5.91328 12.5353 6.17127C12.948 6.12375 13.3403 6.01512 13.7057 5.85218C13.4486 6.25953 13.1036 6.61935 12.7044 6.9045Z" fill="white"/>
</svg>
