<svg width="19" height="19" viewBox="0 0 19 19" fill="none" xmlns="http://www.w3.org/2000/svg">
<path d="M9.5 0C4.256 0 0 4.1904 0 9.35358C0 14.5168 4.256 18.7072 9.5 18.7072C14.744 18.7072 19 14.5168 19 9.35358C19 4.1904 14.744 0 9.5 0ZM14.2728 7.58014C14.2804 7.67741 14.2804 7.77469 14.2804 7.87197C14.2804 10.8501 11.9776 14.2848 7.7672 14.2848C6.4752 14.2848 5.2668 13.9106 4.256 13.2746C4.4384 13.297 4.6208 13.3045 4.8032 13.3045C5.8748 13.3045 6.8628 12.9454 7.6456 12.3392C6.6424 12.3243 5.7988 11.6658 5.5024 10.7753C5.6392 10.8053 5.7836 10.8127 5.9356 10.8127C6.1408 10.8127 6.346 10.7828 6.536 10.7304C5.4872 10.5209 4.6968 9.61548 4.6968 8.52298C4.6968 8.5155 4.6968 8.50053 4.6968 8.49305C5.0084 8.66515 5.358 8.76243 5.7304 8.7774C5.1148 8.37332 4.712 7.6849 4.712 6.8992C4.712 6.48764 4.826 6.09853 5.0236 5.76929C6.156 7.13117 7.8432 8.02911 9.7432 8.12639C9.7052 7.96176 9.6824 7.78966 9.6824 7.61007C9.6824 6.36791 10.7084 5.35773 11.97 5.35773C12.6312 5.35773 13.224 5.63459 13.642 6.0686C14.1664 5.96384 14.6528 5.77677 15.0936 5.52235C14.9188 6.04615 14.5616 6.48764 14.0828 6.77199C14.5464 6.71961 14.9872 6.59988 15.3976 6.42029C15.1088 6.86927 14.7212 7.26586 14.2728 7.58014Z" fill="#FE9A22"/>
</svg>
